<svg width="32" height="32" viewBox="0 0 32 32" fill="none" xmlns="http://www.w3.org/2000/svg">
<path fill-rule="evenodd" clip-rule="evenodd" d="M16 2C16.5523 2 17 2.44772 17 3V29C17 29.5523 16.5523 30 16 30C15.4477 30 15 29.5523 15 29V3C15 2.44772 15.4477 2 16 2Z" fill="white"/>
<path fill-rule="evenodd" clip-rule="evenodd" d="M9.25736 6.75736C10.3826 5.63214 11.9087 5 13.5 5H18C18.7879 5 19.5681 5.15519 20.2961 5.45672C21.0241 5.75825 21.6855 6.20021 22.2426 6.75736C22.7998 7.31451 23.2417 7.97595 23.5433 8.7039C23.8448 9.43185 24 10.2121 24 11C24 11.5523 23.5523 12 23 12C22.4477 12 22 11.5523 22 11C22 10.4747 21.8965 9.95457 21.6955 9.46927C21.4945 8.98396 21.1999 8.54301 20.8284 8.17157C20.457 7.80014 20.016 7.5055 19.5307 7.30448C19.0454 7.10346 18.5253 7 18 7H13.5C12.4391 7 11.4217 7.42143 10.6716 8.17157C9.92143 8.92172 9.5 9.93913 9.5 11C9.5 12.0609 9.92143 13.0783 10.6716 13.8284C11.4217 14.5786 12.4391 15 13.5 15H19C20.5913 15 22.1174 15.6321 23.2426 16.7574C24.3679 17.8826 25 19.4087 25 21C25 22.5913 24.3679 24.1174 23.2426 25.2426C22.1174 26.3679 20.5913 27 19 27H13C11.4087 27 9.88258 26.3679 8.75736 25.2426C7.63214 24.1174 7 22.5913 7 21C7 20.4477 7.44772 20 8 20C8.55228 20 9 20.4477 9 21C9 22.0609 9.42143 23.0783 10.1716 23.8284C10.9217 24.5786 11.9391 25 13 25H19C20.0609 25 21.0783 24.5786 21.8284 23.8284C22.5786 23.0783 23 22.0609 23 21C23 19.9391 22.5786 18.9217 21.8284 18.1716C21.0783 17.4214 20.0609 17 19 17H13.5C11.9087 17 10.3826 16.3679 9.25736 15.2426C8.13214 14.1174 7.5 12.5913 7.5 11C7.5 9.4087 8.13214 7.88258 9.25736 6.75736Z" fill="white"/>
</svg>
