<svg width="32" height="32" viewBox="0 0 32 32" fill="none" xmlns="http://www.w3.org/2000/svg">
<g id="Icons">
<path id="Vector (Stroke)" fill-rule="evenodd" clip-rule="evenodd" d="M16 5C9.92487 5 5 9.92487 5 16C5 22.0751 9.92487 27 16 27C22.0751 27 27 22.0751 27 16C27 9.92487 22.0751 5 16 5ZM3 16C3 8.8203 8.8203 3 16 3C23.1797 3 29 8.8203 29 16C29 23.1797 23.1797 29 16 29C8.8203 29 3 23.1797 3 16Z" fill="#00B37E"/>
<path id="Vector (Stroke)_2" fill-rule="evenodd" clip-rule="evenodd" d="M16 10C16.2652 10 16.5195 10.1054 16.7071 10.2929L20.9446 14.5304C21.3351 14.9209 21.3351 15.5541 20.9446 15.9446C20.554 16.3351 19.9209 16.3351 19.5303 15.9446L16 12.4142L12.4696 15.9446C12.079 16.3351 11.4459 16.3351 11.0553 15.9446C10.6648 15.5541 10.6648 14.9209 11.0553 14.5304L15.2928 10.2929C15.4804 10.1054 15.7347 10 16 10Z" fill="#00B37E"/>
<path id="Vector (Stroke)_3" fill-rule="evenodd" clip-rule="evenodd" d="M16 10C16.5523 10 17 10.4477 17 11L17 21C17 21.5523 16.5523 22 16 22C15.4477 22 15 21.5523 15 21L15 11C15 10.4477 15.4477 10 16 10Z" fill="#00B37E"/>
</g>
</svg>
