<svg width="32" height="32" viewBox="0 0 32 32" fill="none" xmlns="http://www.w3.org/2000/svg">
<g id="Icons">
<path id="Vector (Stroke)" fill-rule="evenodd" clip-rule="evenodd" d="M16 5C9.92487 5 5 9.92487 5 16C5 22.0751 9.92487 27 16 27C22.0751 27 27 22.0751 27 16C27 9.92487 22.0751 5 16 5ZM3 16C3 8.8203 8.8203 3 16 3C23.1797 3 29 8.8203 29 16C29 23.1797 23.1797 29 16 29C8.8203 29 3 23.1797 3 16Z" fill="#F75A68"/>
<path id="Vector (Stroke)_2" fill-rule="evenodd" clip-rule="evenodd" d="M11.0554 16.0553C11.4459 15.6648 12.0791 15.6648 12.4696 16.0553L16 19.5857L19.5304 16.0553C19.9209 15.6648 20.5541 15.6648 20.9446 16.0553C21.3351 16.4459 21.3351 17.079 20.9446 17.4696L16.7071 21.7071C16.3166 22.0976 15.6834 22.0976 15.2929 21.7071L11.0554 17.4696C10.6649 17.079 10.6649 16.4459 11.0554 16.0553Z" fill="#F75A68"/>
<path id="Vector (Stroke)_3" fill-rule="evenodd" clip-rule="evenodd" d="M16.0001 10C16.5523 10 17.0001 10.4477 17.0001 11L17.0001 21C17.0001 21.5523 16.5523 22 16.0001 22C15.4478 22 15.0001 21.5523 15.0001 21L15.0001 11C15.0001 10.4477 15.4478 10 16.0001 10Z" fill="#F75A68"/>
</g>
</svg>
