<svg width="32" height="32" viewBox="0 0 32 32" fill="none" xmlns="http://www.w3.org/2000/svg">
<path fill-rule="evenodd" clip-rule="evenodd" d="M23.4587 5.99998C23.7913 5.99783 24.1192 6.07919 24.4123 6.23666C24.7048 6.39382 24.9532 6.62172 25.1349 6.89952L30.8321 15.4453C31.056 15.7812 31.056 16.2188 30.8321 16.5547L25.1349 25.1005C24.9532 25.3782 24.7048 25.6061 24.4123 25.7633C24.1192 25.9208 23.7913 26.0021 23.4587 26H5C4.46957 26 3.96086 25.7893 3.58579 25.4142C3.21071 25.0391 3 24.5304 3 24V7.99998C3 7.46955 3.21071 6.96084 3.58579 6.58577C3.96086 6.21069 4.46957 5.99998 5 5.99998H23.4587ZM24.3 24.55L23.4679 23.9953L28.7981 16L23.4648 8L23.4625 8.00002L5 7.99998L5 24H23.4717C23.4701 24 23.4686 24.0003 23.4671 24.0008C23.4666 24.001 23.4661 24.0012 23.4657 24.0015C23.4645 24.0021 23.4634 24.003 23.4625 24.0039C23.462 24.0045 23.4615 24.0051 23.4611 24.0057L24.3 24.55Z" fill="#7C7C8A"/>
</svg>
