<svg xmlns="http://www.w3.org/2000/svg" width="16" height="16" viewBox="0 0 16 16" fill="none">
  <path fill-rule="evenodd" clip-rule="evenodd" d="M11.7294 3.00002C11.8957 2.99894 12.0596 3.03963 12.2061 3.11836C12.3524 3.19694 12.4766 3.31089 12.5674 3.44979L15.416 7.72267C15.528 7.89062 15.528 8.10942 15.416 8.27737L12.5674 12.5503C12.4766 12.6892 12.3524 12.8031 12.2061 12.8817C12.0596 12.9604 11.8957 13.0011 11.7293 13H2.5C2.23478 13 1.98043 12.8947 1.79289 12.7071C1.60536 12.5196 1.5 12.2652 1.5 12V4.00002C1.5 3.7348 1.60536 3.48045 1.79289 3.29291C1.98043 3.10538 2.23478 3.00002 2.5 3.00002H11.7294ZM12.15 12.275L11.734 11.9977L14.3991 8.00002L11.7324 4.00003L11.7312 4.00004L2.5 4.00002L2.5 12H11.7358C11.7351 12 11.7343 12.0002 11.7336 12.0004C11.7333 12.0005 11.7331 12.0007 11.7328 12.0008C11.7322 12.0011 11.7317 12.0015 11.7312 12.002C11.731 12.0023 11.7308 12.0026 11.7305 12.0029L12.15 12.275Z" fill="#7C7C8A"/>
</svg>